<svg width="14" height="12" viewBox="0 0 14 12" fill="none" xmlns="http://www.w3.org/2000/svg">
<path d="M13 4C13.276 4 13.5117 4.09766 13.707 4.29297C13.9023 4.48829 14 4.72396 14 5C14 5.27605 13.9023 5.51172 13.707 5.70704C13.5117 5.90235 13.276 6 13 6V9C13 9.27084 12.901 9.50521 12.7031 9.70313C12.5052 9.90105 12.2708 10 12 10C9.82812 8.19271 7.71354 7.20313 5.65625 7.03125C5.35417 7.13021 5.11719 7.30209 4.94531 7.54688C4.77344 7.79167 4.69271 8.05339 4.70312 8.33204C4.71354 8.61068 4.81771 8.85157 5.01562 9.05469C4.91146 9.22657 4.85156 9.39714 4.83594 9.56641C4.82031 9.73568 4.83594 9.88672 4.88281 10.0195C4.92969 10.1523 5.01693 10.2956 5.14453 10.4492C5.27214 10.6029 5.39714 10.7331 5.51953 10.8398C5.64193 10.9466 5.80208 11.0781 6 11.2344C5.84896 11.5365 5.55859 11.7526 5.12891 11.8828C4.69922 12.013 4.26042 12.043 3.8125 11.9727C3.36458 11.9023 3.02083 11.7578 2.78125 11.5391C2.74479 11.4193 2.66797 11.1914 2.55078 10.8555C2.43359 10.5195 2.35026 10.2734 2.30078 10.1172C2.2513 9.96094 2.19141 9.72917 2.12109 9.42188C2.05078 9.11459 2.01172 8.85157 2.00391 8.63282C1.99609 8.41407 2.00521 8.15756 2.03125 7.86329C2.05729 7.56902 2.11458 7.28125 2.20312 7H1.25C0.90625 7 0.611979 6.87761 0.367188 6.63282C0.122396 6.38803 0 6.09375 0 5.75V4.25C0 3.90625 0.122396 3.61198 0.367188 3.36719C0.611979 3.1224 0.90625 3 1.25 3H5C7.26562 3 9.59896 2 12 4.76837e-06C12.2708 4.76837e-06 12.5052 0.0989631 12.7031 0.29688C12.901 0.494796 13 0.729171 13 1V4ZM12 8.71875V1.26563C9.94792 2.83855 7.94792 3.73178 6 3.94532V6.05469C7.96354 6.27344 9.96354 7.16146 12 8.71875Z" fill="white"/>
</svg>
