<svg width="44" height="38" viewBox="0 0 44 38" fill="none" xmlns="http://www.w3.org/2000/svg">
<path d="M44 3.15326C44 3.86397 43.215 4.44031 42.247 4.44031H32.2843V8.21765C32.2843 10.3538 30.2326 12.0339 27.6388 12.0339H23.6946V15.0861C25.2723 15.5608 26.1488 16.6531 26.1488 17.9221V23.3599H29.1289V18.0186C29.1289 17.603 29.5165 17.2337 30.0182 17.0977C30.2247 16.9988 30.5001 16.9246 30.7649 16.9246H39.3693C40.0956 16.9246 40.6986 17.3889 40.6986 17.9221V20.0457C40.6986 20.5789 40.0956 21.0432 39.3693 21.0432H31.7584V24.3251C31.7584 24.8584 31.2283 25.2904 30.502 25.2904H26.1488V34.9111C26.1488 36.6142 24.2614 38 21.9416 38C19.6219 38 17.7345 36.6142 17.7345 34.9111V25.2904H14.4038V30.6317C14.4038 30.9505 14.2216 31.2162 13.8972 31.3919C13.6698 31.53 13.4072 31.597 13.089 31.597H4.73307C4.5008 31.597 4.2829 31.5684 4.09358 31.4908C3.64359 31.3375 3.30158 31.0198 3.30158 30.6317C3.30158 30.5102 3.35995 30.3945 3.35995 30.2874V28.5402C3.35995 28.007 4.00681 27.6071 4.73307 27.6071H11.7743V24.3251C11.7743 23.7919 12.4211 23.3599 13.1474 23.3599H17.7345V17.9221C17.7345 16.7549 18.7863 15.737 20.0133 15.2117V12.0339H16.186C13.5923 12.0339 11.4237 10.3536 11.4237 8.21765V4.44031H1.75299C0.784988 4.44031 0 3.86397 0 3.15326C0 2.44255 0.784988 1.86622 1.75299 1.86622H3.76279C4.40929 0.707875 5.89705 0 7.6255 0C9.35394 0 10.8417 0.707875 11.4882 1.86622H13.2351C14.2031 1.86622 14.9297 2.41038 14.9297 3.12108V8.21765C14.9297 8.98357 15.6195 9.45978 16.186 9.45978H21.8247C21.8543 9.45978 21.8831 9.46197 21.9124 9.463C21.9416 9.46197 21.9704 9.45978 22 9.45978H27.6388C28.2052 9.45978 28.7783 8.98357 28.7783 8.21765V3.12108C28.7783 2.41038 29.6216 1.86622 30.5896 1.86622H42.247C43.215 1.86622 44 2.44255 44 3.15326Z" fill="white"/>
</svg>
