<svg width="44" height="38" viewBox="0 0 44 40" fill="none" xmlns="http://www.w3.org/2000/svg">
<path fill-rule="evenodd" clip-rule="evenodd" d="M11.7123 11.2879C11.9103 10.5336 12.6668 9.99999 13.5382 9.99999H29.4618C30.3331 9.99999 31.0897 10.5336 31.2877 11.2879L32.2621 15H30.875H12.125H10.7379L11.7123 11.2879ZM2.75 18.3333H4.62431C3.44739 19.7262 2.75 21.4573 2.75 23.3333V25C2.75 27.177 4.31527 29.0292 6.5 29.7155V33.3333C6.5 34.2538 7.33947 35 8.375 35H10.25C11.2855 35 12.125 34.2538 12.125 33.3333V30H30.875V33.3333C30.875 34.2538 31.7144 35 32.75 35H34.625C35.6606 35 36.5 34.2538 36.5 33.3333V29.7155C38.6847 29.0292 40.25 27.177 40.25 25V23.3333C40.25 21.4573 39.5527 19.7262 38.3757 18.3333H40.25C41.2856 18.3333 42.125 17.5872 42.125 16.6667C42.125 15.7462 41.2856 15 40.25 15H38.375C37.4 15 36.5988 15.6615 36.5084 16.5071L36.4509 16.2879L34.9396 10.5305C34.3456 8.26756 32.0759 6.66666 29.4618 6.66666H13.5382C10.924 6.66666 8.65439 8.26756 8.06037 10.5305L6.54905 16.2879L6.49152 16.5071C6.40117 15.6615 5.59998 15 4.625 15H2.75C1.71447 15 0.875 15.7462 0.875 16.6667C0.875 17.5872 1.71447 18.3333 2.75 18.3333ZM12.125 18.3333C9.01841 18.3333 6.5 20.5718 6.5 23.3333V25C6.5 25.9205 7.33947 26.6667 8.375 26.6667H10.25H32.75H34.625C35.6606 26.6667 36.5 25.9205 36.5 25V23.3333C36.5 20.5718 33.9817 18.3333 30.875 18.3333H12.125ZM10.25 22.5C10.25 21.1193 11.5092 20 13.0625 20C14.6158 20 15.875 21.1193 15.875 22.5C15.875 23.8807 14.6158 25 13.0625 25C11.5092 25 10.25 23.8807 10.25 22.5ZM29.9375 20C28.3842 20 27.125 21.1193 27.125 22.5C27.125 23.8807 28.3842 25 29.9375 25C31.4907 25 32.75 23.8807 32.75 22.5C32.75 21.1193 31.4907 20 29.9375 20Z" fill="white"/>
</svg>
