<svg width="15" height="14" viewBox="0 0 15 14" fill="none" xmlns="http://www.w3.org/2000/svg">
<path d="M12.0116 9.65179C12.0116 9.58631 12.0056 9.53869 11.9937 9.50893C11.9818 9.47917 11.9282 9.43006 11.833 9.36161C11.7378 9.29316 11.6172 9.21875 11.4714 9.1384C11.3256 9.05804 11.1842 8.97917 11.0473 8.90179C10.9104 8.82441 10.775 8.75 10.641 8.67858C10.5071 8.60715 10.4223 8.5625 10.3866 8.54465C10.3568 8.52679 10.3003 8.4881 10.2169 8.42858C10.1336 8.36905 10.0592 8.32441 9.99372 8.29465C9.92825 8.26488 9.86575 8.25 9.80622 8.25C9.71694 8.25 9.60831 8.31102 9.48033 8.43304C9.35235 8.55506 9.23479 8.68899 9.12765 8.83483C9.02051 8.98066 8.90593 9.11459 8.7839 9.23661C8.66188 9.35864 8.56217 9.41965 8.48479 9.41965C8.44313 9.41965 8.39402 9.40923 8.33747 9.3884C8.28092 9.36756 8.23479 9.34822 8.19908 9.33036C8.16337 9.3125 8.11277 9.28423 8.04729 9.24554C7.98182 9.20685 7.94015 9.18155 7.92229 9.16965C7.33301 8.84227 6.82706 8.46578 6.40444 8.04018C5.98182 7.61459 5.60384 7.10715 5.27051 6.51786C5.2586 6.5 5.23331 6.45834 5.19462 6.39286C5.15592 6.32739 5.12765 6.27679 5.10979 6.24108C5.09194 6.20536 5.07259 6.15923 5.05176 6.10268C5.03092 6.04613 5.02051 5.99703 5.02051 5.95536C5.02051 5.87798 5.08152 5.77828 5.20354 5.65625C5.32557 5.53423 5.4595 5.41965 5.60533 5.3125C5.75116 5.20536 5.88509 5.0878 6.00712 4.95983C6.12914 4.83185 6.19015 4.72322 6.19015 4.63393C6.19015 4.57441 6.17527 4.51191 6.14551 4.44643C6.11575 4.38096 6.0711 4.30655 6.01158 4.22322C5.95206 4.13988 5.91336 4.08334 5.89551 4.05358C5.87765 4.01786 5.83301 3.93304 5.76158 3.79911C5.69015 3.66518 5.61575 3.52977 5.53837 3.39286C5.46098 3.25596 5.38211 3.11459 5.30176 2.96875C5.2214 2.82292 5.147 2.70238 5.07854 2.60715C5.01009 2.51191 4.96098 2.45834 4.93122 2.44643C4.90146 2.43453 4.85384 2.42858 4.78837 2.42858C4.50265 2.42858 4.20206 2.49405 3.88658 2.625C3.61277 2.75 3.37467 3.03125 3.17229 3.46875C2.96991 3.90625 2.86872 4.29465 2.86872 4.63393C2.86872 4.72917 2.87616 4.83036 2.89104 4.9375C2.90592 5.04465 2.92081 5.13542 2.93569 5.20983C2.95057 5.28423 2.97735 5.38244 3.01604 5.50447C3.05473 5.62649 3.0845 5.71429 3.10533 5.76786C3.12616 5.82143 3.16337 5.91965 3.21694 6.0625C3.27051 6.20536 3.30325 6.29465 3.31515 6.33036C3.67229 7.30655 4.31664 8.26042 5.24819 9.19197C6.17973 10.1235 7.1336 10.7679 8.10979 11.125C8.14551 11.1369 8.23479 11.1696 8.37765 11.2232C8.52051 11.2768 8.61872 11.314 8.67229 11.3348C8.72587 11.3557 8.81366 11.3854 8.93569 11.4241C9.05771 11.4628 9.15592 11.4896 9.23033 11.5045C9.30473 11.5193 9.39551 11.5342 9.50265 11.5491C9.60979 11.564 9.71098 11.5714 9.80622 11.5714C10.1455 11.5714 10.5339 11.4702 10.9714 11.2679C11.4089 11.0655 11.6902 10.8274 11.8152 10.5536C11.9461 10.2381 12.0116 9.9375 12.0116 9.65179ZM14.2973 2.71429V11.2857C14.2973 11.9941 14.0458 12.5997 13.5428 13.1027C13.0399 13.6057 12.4342 13.8571 11.7259 13.8571H3.15444C2.4461 13.8571 1.84045 13.6057 1.33747 13.1027C0.834496 12.5997 0.583008 11.9941 0.583008 11.2857V2.71429C0.583008 2.00596 0.834496 1.4003 1.33747 0.897326C1.84045 0.394349 2.4461 0.14286 3.15444 0.14286H11.7259C12.4342 0.14286 13.0399 0.394349 13.5428 0.897326C14.0458 1.4003 14.2973 2.00596 14.2973 2.71429Z" fill="#4A51B0"/>
</svg>
