<svg width="11" height="12" viewBox="0 0 11 12" fill="none" xmlns="http://www.w3.org/2000/svg">
<path d="M10.9609 0.604675C11.0494 0.818217 11.0129 1.00051 10.8515 1.15155L6.99992 5.00311V10.8C6.99992 11.0187 6.89836 11.1724 6.69523 11.2609C6.62752 11.287 6.56242 11.3 6.49992 11.3C6.35929 11.3 6.24211 11.2505 6.14836 11.1516L4.14836 9.15155C4.0494 9.05259 3.99992 8.9354 3.99992 8.79999V5.00311L0.148356 1.15155C-0.0131022 1.00051 -0.0495605 0.818217 0.0389811 0.604675C0.127523 0.40155 0.281169 0.299988 0.499919 0.299988H10.4999C10.7187 0.299988 10.8723 0.40155 10.9609 0.604675Z" fill="#020747"/>
</svg>
