<svg width="25" height="27" viewBox="0 0 25 27" fill="none" xmlns="http://www.w3.org/2000/svg">
<g clip-path="url(#clip0_2_821)" filter="url(#filter0_d_2_821)">
<path d="M14.2535 12.4863C14.2535 12.4863 14.4736 12.2662 14.9139 11.8259C15.3542 11.3856 15.5744 10.5461 15.5744 9.30722C15.5744 8.06838 15.1341 7.00867 14.2535 6.12809C13.3729 5.24751 12.3132 4.80722 11.0744 4.80722C9.83552 4.80722 8.77581 5.24751 7.89523 6.12809C7.01465 7.00867 6.57436 8.06838 6.57436 9.30722C6.57436 10.5461 7.01465 11.6058 7.89523 12.4863C8.77581 13.3669 9.83552 13.8072 11.0744 13.8072C12.3132 13.8072 13.3729 13.3669 14.2535 12.4863ZM20.7172 17.6644C20.7172 18.0126 20.59 18.3139 20.3355 18.5684C20.0811 18.8228 19.7797 18.9501 19.4315 18.9501C19.0699 18.9501 18.7686 18.8228 18.5275 18.5684L15.0822 15.1331C13.8835 15.9635 12.5476 16.3786 11.0744 16.3786C10.1168 16.3786 9.20103 16.1928 8.32715 15.8212C7.45326 15.4495 6.69992 14.9473 6.0671 14.3145C5.43429 13.6817 4.93206 12.9283 4.56041 12.0544C4.18876 11.1805 4.00293 10.2648 4.00293 9.30722C4.00293 8.34963 4.18876 7.43389 4.56041 6.56001C4.93206 5.68612 5.43429 4.93277 6.0671 4.29996C6.69992 3.66715 7.45326 3.16492 8.32715 2.79327C9.20103 2.42161 10.1168 2.23579 11.0744 2.23579C12.0319 2.23579 12.9477 2.42161 13.8216 2.79327C14.6955 3.16492 15.4488 3.66715 16.0816 4.29996C16.7144 4.93277 17.2167 5.68612 17.5883 6.56001C17.96 7.43389 18.1458 8.34963 18.1458 9.30722C18.1458 10.7804 17.7306 12.1164 16.9003 13.315L20.3456 16.7603C20.5933 17.0081 20.7172 17.3094 20.7172 17.6644Z" fill="white"/>
</g>
<defs>
<filter id="filter0_d_2_821" x="0" y="0.950073" width="24.72" height="26" filterUnits="userSpaceOnUse" color-interpolation-filters="sRGB">
<feFlood flood-opacity="0" result="BackgroundImageFix"/>
<feColorMatrix in="SourceAlpha" type="matrix" values="0 0 0 0 0 0 0 0 0 0 0 0 0 0 0 0 0 0 127 0" result="hardAlpha"/>
<feOffset dy="4"/>
<feGaussianBlur stdDeviation="2"/>
<feComposite in2="hardAlpha" operator="out"/>
<feColorMatrix type="matrix" values="0 0 0 0 0 0 0 0 0 0 0 0 0 0 0 0 0 0 0.25 0"/>
<feBlend mode="normal" in2="BackgroundImageFix" result="effect1_dropShadow_2_821"/>
<feBlend mode="normal" in="SourceGraphic" in2="effect1_dropShadow_2_821" result="shape"/>
</filter>
<clipPath id="clip0_2_821">
<rect width="16.72" height="18" fill="white" transform="matrix(1 0 0 -1 4 18.9501)"/>
</clipPath>
</defs>
</svg>
