<svg width="15" height="12" viewBox="0 0 15 12" fill="none" xmlns="http://www.w3.org/2000/svg">
<path d="M13.7 4C13.976 4 14.2117 4.09765 14.407 4.29297C14.6023 4.48828 14.7 4.72396 14.7 5C14.7 5.27604 14.6023 5.51172 14.407 5.70703C14.2117 5.90234 13.976 6 13.7 6V9C13.7 9.27083 13.601 9.50521 13.4031 9.70312C13.2052 9.90104 12.9708 10 12.7 10C10.5281 8.19271 8.41349 7.20312 6.3562 7.03125C6.05412 7.13021 5.81714 7.30208 5.64526 7.54687C5.47339 7.79166 5.39266 8.05338 5.40308 8.33203C5.41349 8.61067 5.51766 8.85156 5.71558 9.05468C5.61141 9.22656 5.55151 9.39713 5.53589 9.5664C5.52026 9.73567 5.53589 9.88672 5.58276 10.0195C5.62964 10.1523 5.71688 10.2956 5.84448 10.4492C5.97209 10.6029 6.09709 10.7331 6.21948 10.8398C6.34188 10.9466 6.50203 11.0781 6.69995 11.2344C6.54891 11.5365 6.25854 11.7526 5.82886 11.8828C5.39917 12.013 4.96037 12.043 4.51245 11.9727C4.06453 11.9023 3.72078 11.7578 3.4812 11.5391C3.44474 11.4193 3.36792 11.1914 3.25073 10.8555C3.13354 10.5195 3.05021 10.2734 3.00073 10.1172C2.95125 9.96093 2.89136 9.72916 2.82104 9.42187C2.75073 9.11458 2.71167 8.85156 2.70386 8.63281C2.69604 8.41406 2.70516 8.15755 2.7312 7.86328C2.75724 7.56901 2.81453 7.28125 2.90308 7H1.94995C1.6062 7 1.31193 6.8776 1.06714 6.63281C0.822347 6.38802 0.699951 6.09375 0.699951 5.75V4.25C0.699951 3.90625 0.822347 3.61198 1.06714 3.36718C1.31193 3.12239 1.6062 3 1.94995 3H5.69995C7.96558 3 10.2989 2 12.7 -2.86102e-06C12.9708 -2.86102e-06 13.2052 0.0989552 13.4031 0.296872C13.601 0.494789 13.7 0.729164 13.7 0.999997V4ZM12.7 8.71875V1.26562C10.6479 2.83854 8.64787 3.73177 6.69995 3.94531V6.05468C8.66349 6.27343 10.6635 7.16146 12.7 8.71875Z" fill="white"/>
</svg>
