<svg width="44" height="38" viewBox="0 0 45 44" fill="none" xmlns="http://www.w3.org/2000/svg">
<g clip-path="url(#clip0_2_664)">
<path d="M35.7757 18.264C35.0084 18.264 34.2636 18.346 33.5505 18.5453L30.7096 9.96156H31.6352C33.092 9.96156 34.4698 9.35899 35.515 8.21887L36.4954 7.16213C36.9409 6.67613 36.9514 5.88269 36.519 5.38187C36.0866 4.88104 35.375 4.87245 34.9296 5.35845L33.9493 6.4039C33.3259 7.08396 32.504 7.43453 31.6354 7.43453H29.0906C28.7222 7.43453 28.3772 7.66295 28.1673 8.00307C27.9573 8.34336 27.9087 8.79027 28.0376 9.17806L29.1188 12.4414C29.1119 12.4413 29.1049 12.4652 29.098 12.4652C29.0956 12.4652 29.0932 12.4883 29.0906 12.4883H14.7067L12.7642 8.80965L14.8741 7.98505C15.3937 7.78441 15.708 7.21856 15.6176 6.60942C15.5271 6.00044 15.0584 5.58166 14.509 5.58166H8.33266C7.46713 5.58166 6.76272 6.34073 6.76272 7.31357C6.76272 8.81975 7.85171 10.0291 9.19009 10.0291C9.45837 10.0291 9.7244 9.97066 9.98098 9.87177L10.5959 9.63037L12.5662 13.3358L11.0529 18.4375C10.5565 18.3248 10.0466 18.2539 9.52521 18.2352C6.88906 18.1404 4.42122 19.2692 2.59815 21.3849C0.84551 23.4188 -0.0756214 26.1003 0.00486137 28.9355C0.159532 34.3829 4.07726 38.7862 8.92377 38.9601C9.02463 38.9636 9.1246 38.9655 9.22472 38.9655C11.7443 38.9655 14.0976 37.8341 15.851 35.7995C17.2694 34.1531 18.1427 32.0294 18.3816 29.8394H20.1878C20.5771 30.1763 21.0812 30.4516 21.6324 30.4516C22.8608 30.4516 23.8601 29.3337 23.8601 27.9529C23.8601 27.5046 23.7534 27.0872 23.5691 26.7226L29.8701 14.7107L31.4518 19.4762C28.5389 21.2213 26.5512 24.67 26.5512 28.6316C26.5512 34.3487 30.6892 39 35.7757 39C40.8621 39 45 34.3489 45 28.6319C45 22.915 40.8621 18.264 35.7757 18.264ZM27.1243 15.0153L21.638 25.475C21.636 25.475 21.6342 25.4646 21.6324 25.4646C21.626 25.4646 21.6198 25.4807 21.6134 25.4809L16.0484 15.0155L27.1243 15.0153ZM14.0871 16.1959L19.6891 26.7268C19.5965 26.9123 19.5259 27.1443 19.4775 27.3127H18.3795C17.9912 23.7751 15.9719 20.7225 13.1852 19.2266L14.0871 16.1959ZM11.1578 27.3127C11.0824 27.1443 10.9958 27.0557 10.8988 26.9366L12.2275 22.4512C13.8341 23.4493 15.0094 25.2912 15.35 27.3127H11.1578ZM13.6979 33.4555C12.4667 34.8842 10.8036 35.6522 9.01954 35.5874C5.74897 35.4701 3.10532 32.5014 3.00101 28.8253C2.94661 26.9101 3.56814 25.1004 4.7514 23.7274C5.93511 22.3538 7.52364 21.5978 9.22442 21.5978C9.29261 21.5978 9.3608 21.5995 9.42959 21.6018C9.65471 21.6099 9.87637 21.633 10.0949 21.6674L8.75111 26.1989C7.76658 26.4578 7.0304 27.4505 7.0304 28.635C7.0304 30.0156 8.02976 31.1283 9.25799 31.1283C10.0901 31.1283 10.8159 30.6819 11.1984 29.8396H15.3498C15.1323 31.1873 14.5675 32.4463 13.6979 33.4555ZM35.7757 35.6313C32.3422 35.6313 29.5487 32.4915 29.5487 28.6323C29.5487 26.1168 30.7358 23.908 32.513 22.6741L34.626 29.0393C34.7946 29.5475 35.2234 29.8613 35.6791 29.8613C35.8097 29.8613 35.9425 29.8357 36.072 29.7811C36.6536 29.5374 36.9492 28.8095 36.732 28.1559L34.6084 21.7583C34.9867 21.6773 35.3765 21.6332 35.7757 21.6332C39.2091 21.6332 42.0025 24.7731 42.0025 28.6323C42.0025 32.4915 39.2093 35.6313 35.7757 35.6313Z" fill="white"/>
</g>
<defs>
<clipPath id="clip0_2_664">
<rect width="45" height="44" fill="white" transform="matrix(1 0 0 -1 0 44)"/>
</clipPath>
</defs>
</svg>
