<svg width="15" height="15" viewBox="0 0 15 15" fill="none" xmlns="http://www.w3.org/2000/svg">
<path d="M5.22119 1.05469C5.22119 1.05469 5.43734 0.96224 5.86963 0.777344C6.30192 0.592448 6.99202 0.5 7.93994 0.5C8.88786 0.5 9.79411 0.684896 10.6587 1.05469C11.5233 1.42448 12.2681 1.92188 12.8931 2.54688C13.5181 3.17188 14.0155 3.91667 14.3853 4.78125C14.755 5.64583 14.9399 6.55208 14.9399 7.5C14.9399 8.44271 14.7563 9.34635 14.3892 10.2109C14.022 11.0755 13.5259 11.8203 12.9009 12.4453C12.2759 13.0703 11.5311 13.569 10.6665 13.9414C9.80192 14.3138 8.89307 14.5 7.93994 14.5C6.98682 14.5 6.07796 14.3151 5.21338 13.9453C4.3488 13.5755 3.60531 13.0768 2.98291 12.4492C2.36051 11.8216 1.86442 11.0768 1.49463 10.2148C1.12484 9.35286 0.939941 8.44792 0.939941 7.5C0.939941 6.55208 1.12484 5.64583 1.49463 4.78125C1.86442 3.91667 2.36182 3.17188 2.98682 2.54688C3.61182 1.92188 4.35661 1.42448 5.22119 1.05469ZM12.7759 11.0547C13.5519 9.98698 13.9399 8.80208 13.9399 7.5C13.9399 6.6875 13.7811 5.91146 13.4634 5.17188C13.1457 4.43229 12.7186 3.79427 12.1821 3.25781C11.6457 2.72135 11.0076 2.29427 10.2681 1.97656C9.52848 1.65885 8.75244 1.5 7.93994 1.5C7.12744 1.5 6.3514 1.65885 5.61182 1.97656C4.87223 2.29427 4.23421 2.72135 3.69775 3.25781C3.1613 3.79427 2.73421 4.43229 2.4165 5.17188C2.0988 5.91146 1.93994 6.6875 1.93994 7.5C1.93994 8.80208 2.32796 9.98698 3.104 11.0547C3.44775 9.35156 4.24463 8.5 5.49463 8.5C6.17692 9.16667 6.99202 9.5 7.93994 9.5C8.88786 9.5 9.70296 9.16667 10.3853 8.5C11.6353 8.5 12.4321 9.35156 12.7759 11.0547ZM10.061 8.12109C10.061 8.12109 10.2075 7.97461 10.5005 7.68164C10.7935 7.38867 10.9399 6.82812 10.9399 6C10.9399 5.17188 10.647 4.46484 10.061 3.87891C9.4751 3.29297 8.76807 3 7.93994 3C7.11182 3 6.40479 3.29297 5.81885 3.87891C5.23291 4.46484 4.93994 5.17188 4.93994 6C4.93994 6.82812 5.23291 7.53516 5.81885 8.12109C6.40479 8.70703 7.11182 9 7.93994 9C8.76807 9 9.4751 8.70703 10.061 8.12109Z" fill="#B61919"/>
</svg>
