<svg width="8" height="9" viewBox="0 0 8 9" fill="none" xmlns="http://www.w3.org/2000/svg">
<path d="M4.57031 4.32031C4.6224 4.3724 4.64844 4.43229 4.64844 4.5C4.64844 4.56771 4.6224 4.6276 4.57031 4.67969L0.929688 8.32031C0.877604 8.3724 0.817708 8.39844 0.75 8.39844C0.682292 8.39844 0.622396 8.3724 0.570312 8.32031L0.179688 7.92969C0.127604 7.8776 0.101562 7.81771 0.101562 7.75C0.101562 7.68229 0.127604 7.6224 0.179688 7.57031L3.25 4.5L0.179688 1.42969C0.127604 1.3776 0.101562 1.31771 0.101562 1.25C0.101562 1.18229 0.127604 1.1224 0.179688 1.07031L0.570312 0.679688C0.622396 0.627604 0.682292 0.601562 0.75 0.601562C0.817708 0.601562 0.877604 0.627604 0.929688 0.679688L4.57031 4.32031ZM7.57031 4.32031C7.6224 4.3724 7.64844 4.43229 7.64844 4.5C7.64844 4.56771 7.6224 4.6276 7.57031 4.67969L3.92969 8.32031C3.8776 8.3724 3.81771 8.39844 3.75 8.39844C3.68229 8.39844 3.6224 8.3724 3.57031 8.32031L3.17969 7.92969C3.1276 7.8776 3.10156 7.81771 3.10156 7.75C3.10156 7.68229 3.1276 7.6224 3.17969 7.57031L6.25 4.5L3.17969 1.42969C3.1276 1.3776 3.10156 1.31771 3.10156 1.25C3.10156 1.18229 3.1276 1.1224 3.17969 1.07031L3.57031 0.679688C3.6224 0.627604 3.68229 0.601562 3.75 0.601562C3.81771 0.601562 3.8776 0.627604 3.92969 0.679688L7.57031 4.32031Z" fill="#4A51B0"/>
</svg>
