<svg width="26" height="31" viewBox="0 0 26 31" fill="none" xmlns="http://www.w3.org/2000/svg">
<g clip-path="url(#clip0_2_682)">
<path d="M21.2139 15.9333C21.4148 15.7324 21.5152 15.4813 21.5152 15.18C21.5152 14.8786 21.4148 14.6275 21.2139 14.4266L19.6904 12.9032L13.6302 6.84291C13.4293 6.64202 13.1782 6.54157 12.8768 6.54157C12.5755 6.54157 12.3244 6.64202 12.1235 6.84291L10.6 8.36635C10.3991 8.56724 10.2987 8.81836 10.2987 9.1197C10.2987 9.42104 10.3991 9.67216 10.6 9.87305L13.7641 13.0371H5.36007C5.06989 13.0371 4.81878 13.1431 4.60672 13.3552C4.39467 13.5672 4.28864 13.8184 4.28864 14.1085V16.2514C4.28864 16.5416 4.39467 16.7927 4.60672 17.0047C4.81878 17.2168 5.06989 17.3228 5.36007 17.3228H13.7641L10.6 20.4869C10.388 20.6989 10.2819 20.9501 10.2819 21.2402C10.2819 21.5304 10.388 21.7815 10.6 21.9936L12.1235 23.517C12.3244 23.7179 12.5755 23.8184 12.8768 23.8184C13.1782 23.8184 13.4293 23.7179 13.6302 23.517L19.6904 17.4568L21.2139 15.9333ZM23.9929 8.72628C23.9929 8.72628 24.2803 9.21875 24.855 10.2037C25.4298 11.1886 25.7172 12.8474 25.7172 15.18C25.7172 17.5126 25.1424 19.6638 23.9929 21.6336C22.8433 23.6035 21.2836 25.1632 19.3138 26.3128C17.3439 27.4623 15.1927 28.0371 12.8601 28.0371C10.5275 28.0371 8.37626 27.4623 6.40639 26.3128C4.43652 25.1632 2.87681 23.6035 1.72726 21.6336C0.577707 19.6638 0.00292969 17.5126 0.00292969 15.18C0.00292969 12.8474 0.577707 10.6961 1.72726 8.72628C2.87681 6.75642 4.43652 5.19671 6.40639 4.04716C8.37626 2.8976 10.5275 2.32282 12.8601 2.32282C15.1927 2.32282 17.3439 2.8976 19.3138 4.04716C21.2836 5.19671 22.8433 6.75642 23.9929 8.72628Z" fill="#5784B2"/>
</g>
<defs>
<clipPath id="clip0_2_682">
<rect width="25.72" height="30" fill="white" transform="matrix(1 0 0 -1 0 30.18)"/>
</clipPath>
</defs>
</svg>
