<svg width="15" height="16" viewBox="0 0 15 16" fill="none" xmlns="http://www.w3.org/2000/svg">
<g clip-path="url(#clip0_2_1015)">
<path d="M8.81327 9.12947C8.81327 9.12947 8.8713 9.0573 8.98738 8.91295C9.10345 8.76861 9.20017 8.69643 9.27755 8.69643C9.35493 8.69643 9.64511 8.82739 10.1481 9.08929C10.6511 9.3512 10.9174 9.50893 10.9472 9.56251C10.9591 9.59227 10.9651 9.63691 10.9651 9.69643C10.9651 9.89286 10.9145 10.1191 10.8133 10.375C10.718 10.6071 10.5067 10.8021 10.1793 10.9598C9.85196 11.1176 9.54839 11.1964 9.26863 11.1964C8.92934 11.1964 8.36386 11.0119 7.5722 10.6429C6.98886 10.375 6.48291 10.0238 6.05434 9.58929C5.62577 9.15477 5.18529 8.60417 4.73291 7.93751C4.30434 7.3006 4.09303 6.72322 4.09898 6.20536V6.13393C4.11684 5.59227 4.33708 5.12203 4.7597 4.72322C4.90255 4.59227 5.05732 4.52679 5.22398 4.52679C5.2597 4.52679 5.31327 4.53126 5.3847 4.54018C5.45612 4.54911 5.51267 4.55358 5.55434 4.55358C5.66743 4.55358 5.7463 4.57292 5.79095 4.61161C5.83559 4.6503 5.88172 4.73215 5.92934 4.85715C5.97696 4.9762 6.07517 5.2381 6.22398 5.64286C6.37279 6.04763 6.4472 6.27084 6.4472 6.31251C6.4472 6.43751 6.34452 6.60864 6.13916 6.8259C5.9338 7.04316 5.83112 7.18155 5.83112 7.24108C5.83112 7.28274 5.84601 7.32739 5.87577 7.37501C6.07815 7.80953 6.38172 8.21727 6.78648 8.59822C7.11982 8.9137 7.56922 9.21429 8.1347 9.50001C8.20612 9.54167 8.2716 9.56251 8.33112 9.56251C8.42041 9.56251 8.58113 9.41816 8.81327 9.12947ZM7.46505 13.4286C8.22101 13.4286 8.94571 13.2798 9.63916 12.9821C10.3326 12.6845 10.9293 12.2857 11.4293 11.7857C11.9293 11.2857 12.3281 10.689 12.6258 9.99554C12.9234 9.30209 13.0722 8.57739 13.0722 7.82143C13.0722 7.06548 12.9234 6.34078 12.6258 5.64733C12.3281 4.95388 11.9293 4.35715 11.4293 3.85715C10.9293 3.35715 10.3326 2.95834 9.63916 2.66072C8.94571 2.3631 8.22101 2.21429 7.46505 2.21429C6.7091 2.21429 5.9844 2.3631 5.29095 2.66072C4.59749 2.95834 4.00077 3.35715 3.50077 3.85715C3.00077 4.35715 2.60196 4.95388 2.30434 5.64733C2.00672 6.34078 1.85791 7.06548 1.85791 7.82143C1.85791 9.02977 2.21505 10.125 2.92934 11.1071L2.22398 13.1875L4.3847 12.5C5.32517 13.1191 6.35196 13.4286 7.46505 13.4286ZM4.85345 1.62501C4.85345 1.62501 5.06104 1.53572 5.47621 1.35715C5.89139 1.17858 6.55434 1.08929 7.46505 1.08929C8.37577 1.08929 9.2463 1.26786 10.0767 1.62501C10.907 1.98215 11.6228 2.46132 12.224 3.06251C12.8252 3.6637 13.3043 4.37947 13.6615 5.20983C14.0186 6.04018 14.1972 6.91072 14.1972 7.82143C14.1972 8.73215 14.0186 9.60268 13.6615 10.433C13.3043 11.2634 12.8252 11.9792 12.224 12.5804C11.6228 13.1816 10.907 13.6607 10.0767 14.0179C9.2463 14.375 8.37577 14.5536 7.46505 14.5536C6.30434 14.5536 5.21803 14.2738 4.20612 13.7143L0.48291 14.9107L1.6972 11.2946C1.05434 10.2351 0.73291 9.07739 0.73291 7.82143C0.73291 6.91072 0.911482 6.04018 1.26862 5.20983C1.62577 4.37947 2.10493 3.6637 2.70612 3.06251C3.30732 2.46132 4.02309 1.98215 4.85345 1.62501Z" fill="#4A51B0"/>
</g>
<defs>
<clipPath id="clip0_2_1015">
<rect width="13.72" height="16" fill="white" transform="matrix(1 0 0 -1 0.47998 16)"/>
</clipPath>
</defs>
</svg>
